<svg aria-hidden="true" style="position: absolute; width: 0; height: 0; overflow: hidden;" version="1.1" xmlns="http://www.w3.org/2000/svg" xmlns:xlink="http://www.w3.org/1999/xlink">
<defs>
<symbol id="dots" viewBox="0 0 32 32">
<path d="M16 13c1.657 0 3 1.343 3 3s-1.343 3-3 3c-1.657 0-3-1.343-3-3v0c0-1.657 1.343-3 3-3v0zM1 16c0 1.657 1.343 3 3 3s3-1.343 3-3c0-1.657-1.343-3-3-3v0c-1.657 0-3 1.343-3 3v0zM25 16c0 1.657 1.343 3 3 3s3-1.343 3-3c0-1.657-1.343-3-3-3v0c-1.657 0-3 1.343-3 3v0z"></path>
</symbol>
<symbol id="profile" viewBox="0 0 32 32">
<path d="M25.874 25.854c-2.611-2.415-6.115-3.896-9.966-3.896-3.727 0-7.129 1.387-9.72 3.673l0.016-0.014-1.234-1.401c2.902-2.562 6.738-4.126 10.939-4.126 4.339 0 8.287 1.668 11.24 4.398l-0.011-0.010z"></path>
<path d="M15.907 9.893c2.558 0 4.631 2.074 4.631 4.631s-2.074 4.631-4.631 4.631c-2.558 0-4.631-2.074-4.631-4.631v0c0.003-2.557 2.075-4.628 4.631-4.631h0M15.907 8.026c-3.589 0-6.499 2.91-6.499 6.499s2.91 6.499 6.499 6.499c3.589 0 6.499-2.91 6.499-6.499v0c0-3.589-2.91-6.499-6.499-6.499v0z"></path>
<path d="M15.998 3.588c6.855 0 12.412 5.557 12.412 12.412s-5.557 12.413-12.412 12.413c-6.855 0-12.412-5.557-12.412-12.413v0c0.008-6.852 5.56-12.405 12.412-12.412h0.001M15.998 1.721c-7.887 0-14.28 6.393-14.28 14.28s6.393 14.28 14.28 14.28c7.887 0 14.28-6.393 14.28-14.28v0c0-7.887-6.393-14.28-14.28-14.28v0z"></path>
</symbol>
<symbol id="arrow-left" viewBox="0 0 32 32">
<path stroke-linejoin="round" stroke-linecap="round" stroke-miterlimit="10" stroke-width="3.2" d="M20 5.6l-10.4 10.4 10.4 10.4"></path>
</symbol>
<symbol id="artists" viewBox="0 0 32 32">
<path stroke-linejoin="miter" stroke-linecap="butt" stroke-miterlimit="4" stroke-width="1.3333" d="M22.486 4.143c1.39 0.247 2.669 0.915 3.667 1.913l-0.011 0.016c0.967 0.967 1.627 2.199 1.895 3.541s0.134 2.732-0.386 3.998c-0.52 1.265-1.403 2.348-2.537 3.113s-2.468 1.176-3.835 1.184c-0.074-0-0.153-0.010-0.28-0.027-0.005-0.001-0.011-0.001-0.017-0.002-0.112-0.015-0.27-0.037-0.435-0.037h-0.238l-12.771 10.436-3.547-3.547 10.461-12.802-0.029-0.276c-0.149-1.422 0.147-2.855 0.848-4.101s1.772-2.243 3.065-2.853 2.743-0.804 4.151-0.553zM7.182 26.951l0.426 0.426 11.833-9.643-1-0.438c-1.537-0.673-2.762-1.902-3.429-3.441l-0.436-1.005-9.66 11.835 2.266 2.266zM22.529 17.133c0.737-0.147 1.438-0.424 2.071-0.815v0.231l1.134-1.114c0.59-0.58 1.059-1.271 1.379-2.034s0.485-1.582 0.485-2.409-0.165-1.646-0.485-2.409c-0.319-0.762-0.787-1.452-1.377-2.031-0.876-0.875-1.992-1.471-3.207-1.713s-2.476-0.118-3.621 0.357-2.124 1.278-2.812 2.308c-0.689 1.031-1.056 2.242-1.056 3.482s0.368 2.451 1.056 3.481c0.689 1.031 1.667 1.834 2.812 2.308s2.405 0.598 3.621 0.357z"></path>
</symbol>
<symbol id="playlists" viewBox="0 0 32 32">
<path stroke-linejoin="miter" stroke-linecap="butt" stroke-miterlimit="4" stroke-width="1.3333" d="M8.593 20.528l1.073 0.826v-16.688h0.667v19.331c-0.005 0.855-0.263 1.69-0.742 2.399s-1.157 1.261-1.95 1.586c-0.792 0.324-1.663 0.407-2.502 0.237s-1.609-0.584-2.213-1.191-1.014-1.379-1.179-2.219c-0.165-0.84-0.078-1.71 0.25-2.501s0.884-1.466 1.596-1.941c0.712-0.475 1.548-0.728 2.404-0.729 0.939 0.003 1.851 0.316 2.595 0.888zM3.963 27.049c0.603 0.403 1.312 0.618 2.037 0.618 0.972 0 1.905-0.386 2.593-1.074s1.074-1.62 1.074-2.593c0-0.725-0.215-1.434-0.618-2.037s-0.976-1.073-1.646-1.351c-0.67-0.277-1.407-0.35-2.119-0.209s-1.365 0.491-1.877 1.004c-0.513 0.513-0.862 1.166-1.003 1.877s-0.069 1.449 0.209 2.119c0.278 0.67 0.747 1.243 1.35 1.645z"></path>
<path stroke-linejoin="miter" stroke-linecap="butt" stroke-miterlimit="4" stroke-width="1.3333" d="M16.667 20.4h10.667v0.667h-10.667v-0.667z"></path>
<path stroke-linejoin="miter" stroke-linecap="butt" stroke-miterlimit="4" stroke-width="1.3333" d="M16.667 9.733h13.333v0.667h-13.333v-0.667z"></path>
<path stroke-linejoin="miter" stroke-linecap="butt" stroke-miterlimit="4" stroke-width="1.3333" d="M16.667 15.067h12v0.667h-12v-0.667z"></path>
</symbol>
<symbol id="tracks" viewBox="0 0 32 32">
<path stroke-linejoin="miter" stroke-linecap="butt" stroke-miterlimit="4" stroke-width="1.3333" d="M27.734 2.984v19.678c-0.012 0.875-0.316 1.721-0.863 2.405s-1.309 1.166-2.162 1.368c-0.853 0.202-1.749 0.114-2.546-0.251s-1.449-0.986-1.853-1.764c-0.404-0.778-0.536-1.669-0.376-2.531s0.604-1.646 1.26-2.227c0.657-0.581 1.488-0.926 2.363-0.98s1.743 0.185 2.466 0.681l1.043 0.715v-16.263l-14.933 3.455v17.731c0.002 0.879-0.291 1.733-0.832 2.427s-1.298 1.185-2.151 1.397c-0.853 0.212-1.753 0.133-2.555-0.226s-1.462-0.976-1.872-1.754c-0.411-0.777-0.549-1.67-0.393-2.535s0.597-1.653 1.254-2.238c0.656-0.585 1.49-0.933 2.367-0.989s1.748 0.184 2.473 0.681l1.043 0.715v-15.748l16.267-3.746zM7.845 28.187l0.086 0.086 0.286-0.007c0.438-0.011 0.869-0.108 1.269-0.285s0.762-0.432 1.063-0.75c0.302-0.317 0.538-0.691 0.696-1.1 0.156-0.406 0.232-0.839 0.222-1.274-0.002-0.656-0.197-1.298-0.562-1.843-0.366-0.548-0.887-0.975-1.496-1.228s-1.279-0.318-1.926-0.19c-0.647 0.129-1.241 0.446-1.707 0.912s-0.784 1.060-0.912 1.707c-0.129 0.647-0.063 1.317 0.19 1.926s0.68 1.13 1.228 1.496c0.468 0.313 1.006 0.501 1.563 0.549zM23.438 25.78l0.093 0.093 2.87-3.207 0.666 0.034c0-0 0-0.001 0-0.001 0.033-0.648-0.128-1.292-0.463-1.848s-0.827-1.001-1.416-1.276c-0.588-0.275-1.245-0.369-1.887-0.269s-1.239 0.389-1.716 0.83c-0.477 0.441-0.811 1.014-0.961 1.646s-0.107 1.294 0.121 1.902c0.229 0.608 0.633 1.134 1.162 1.511 0.453 0.323 0.98 0.524 1.53 0.586z"></path>
</symbol>
<symbol id="search" viewBox="0 0 32 32">
<path stroke-linejoin="miter" stroke-linecap="butt" stroke-miterlimit="4" stroke-width="1.6" d="M23.044 24.176l-0.495-0.495-0.556 0.425c-1.884 1.439-4.238 2.294-6.793 2.294-6.186 0-11.2-5.014-11.2-11.2s5.014-11.2 11.2-11.2c6.186 0 11.2 5.014 11.2 11.2 0 2.555-0.855 4.909-2.295 6.793l-0.425 0.556 4.885 4.885c0.312 0.312 0.312 0.819 0 1.131s-0.819 0.312-1.131 0l-4.39-4.39zM15.2 5.6c-5.302 0-9.6 4.298-9.6 9.6s4.298 9.6 9.6 9.6c5.302 0 9.6-4.298 9.6-9.6s-4.298-9.6-9.6-9.6z"></path>
</symbol>
<symbol id="arrow-right" viewBox="0 0 32 32">
<path stroke-linejoin="round" stroke-linecap="round" stroke-miterlimit="10" stroke-width="3.2" d="M12 26.4l10.4-10.4-10.4-10.4"></path>
</symbol>
<symbol id="albums" viewBox="0 0 32 32">
<path stroke-linejoin="miter" stroke-linecap="butt" stroke-miterlimit="4" stroke-width="1.3333" d="M26.145 7.922l0.001 0.001c1.523 1.905 2.477 4.203 2.751 6.627s-0.144 4.876-1.205 7.073-2.721 4.049-4.789 5.343c-2.068 1.294-4.461 1.976-6.9 1.968h-0.005c-0.492 0.002-0.983-0.023-1.472-0.076-1.69-0.183-3.326-0.7-4.814-1.52s-2.799-1.928-3.856-3.258l-0-0.001c-2.142-2.691-3.128-6.122-2.741-9.54s2.117-6.541 4.808-8.684 6.122-3.128 9.54-2.741c3.417 0.388 6.541 2.117 8.683 4.808zM17.409 3.804v0l-0.005-0.001c-0.467-0.050-0.937-0.074-1.407-0.070-2.365 0.002-4.679 0.688-6.663 1.975s-3.555 3.121-4.521 5.28-1.288 4.552-0.926 6.889c0.362 2.338 1.392 4.521 2.967 6.286s3.626 3.038 5.907 3.665c2.281 0.627 4.695 0.58 6.95-0.134s4.256-2.064 5.761-3.889c1.505-1.825 2.451-4.046 2.723-6.396 0.187-1.602 0.055-3.225-0.386-4.775s-1.184-3-2.186-4.264c-1.002-1.264-2.243-2.318-3.653-3.101s-2.96-1.281-4.562-1.465z"></path>
<path stroke-linejoin="miter" stroke-linecap="butt" stroke-miterlimit="4" stroke-width="1.3333" d="M14.148 13.228c0.548-0.366 1.193-0.562 1.852-0.562 0.884 0 1.732 0.351 2.357 0.976s0.976 1.473 0.976 2.357c0 0.659-0.195 1.304-0.562 1.852s-0.887 0.975-1.496 1.228c-0.609 0.252-1.279 0.318-1.926 0.19s-1.241-0.446-1.707-0.912c-0.466-0.466-0.784-1.060-0.912-1.707s-0.063-1.317 0.19-1.926 0.68-1.13 1.228-1.496zM14.519 18.217c0.439 0.293 0.954 0.449 1.481 0.449 0.707 0 1.385-0.281 1.886-0.781s0.781-1.178 0.781-1.886c0-0.527-0.156-1.043-0.449-1.481s-0.709-0.78-1.197-0.982c-0.487-0.202-1.023-0.255-1.541-0.152s-0.992 0.357-1.365 0.73-0.627 0.848-0.73 1.365c-0.103 0.517-0.050 1.053 0.152 1.541s0.544 0.904 0.982 1.197z"></path>
</symbol>
<symbol id="menu" viewBox="0 0 32 32">
<path d="M30.4 6.4c0 0.884-0.716 1.6-1.6 1.6v0h-25.6c-0.884 0-1.6-0.716-1.6-1.6s0.716-1.6 1.6-1.6v0h25.6c0.884 0 1.6 0.716 1.6 1.6v0zM30.4 16c0 0.884-0.716 1.6-1.6 1.6v0h-25.6c-0.884 0-1.6-0.716-1.6-1.6s0.716-1.6 1.6-1.6v0h25.6c0.884 0 1.6 0.716 1.6 1.6v0zM28.8 27.2c0.884 0 1.6-0.716 1.6-1.6s-0.716-1.6-1.6-1.6v0h-25.6c-0.884 0-1.6 0.716-1.6 1.6s0.716 1.6 1.6 1.6v0h25.6z"></path>
</symbol>
<symbol id="cross" viewBox="0 0 32 32">
<path fill="#a766ff" style="fill: var(--color1, #a766ff)" d="M9.326 9.342c-0.521 0.521-0.521 1.365 0 1.886l4.78 4.78-4.78 4.78c-0.521 0.521-0.521 1.365 0 1.886s1.365 0.521 1.886 0l4.78-4.78 4.78 4.78c0.521 0.521 1.365 0.521 1.886 0s0.521-1.365 0-1.886l-4.78-4.78 4.78-4.78c0.521-0.521 0.521-1.365 0-1.886s-1.365-0.521-1.886 0l-4.78 4.78-4.78-4.78c-0.521-0.521-1.365-0.521-1.886 0z"></path>
</symbol>
</defs>
</svg>
